<svg xmlns="http://www.w3.org/2000/svg" viewBox="0 0 100 100">
  <defs>
    <linearGradient id="gradient" x1="0%" y1="0%" x2="100%" y2="100%">
      <stop offset="0%" stop-color="#4285F4"/>
      <stop offset="50%" stop-color="#9C27B0"/>
      <stop offset="100%" stop-color="#E91E63"/>
    </linearGradient>
  </defs>
  <path d="M50,10 C27.91,10 10,27.91 10,50 C10,72.09 27.91,90 50,90 C72.09,90 90,72.09 90,50 C90,27.91 72.09,10 50,10 Z M50,20 C66.57,20 80,33.43 80,50 C80,66.57 66.57,80 50,80 C33.43,80 20,66.57 20,50 C20,33.43 33.43,20 50,20 Z" fill="url(#gradient)" />
  <path d="M30,40 C30,35 35,30 40,30 C45,30 50,35 50,40 C50,45 45,50 40,50 C35,50 30,45 30,40 Z M60,40 C60,35 65,30 70,30 C75,30 80,35 80,40 C80,45 75,50 70,50 C65,50 60,45 60,40 Z" fill="url(#gradient)" />
  <path d="M30,60 C30,55 35,50 40,50 C45,50 50,55 50,60 C50,65 45,70 40,70 C35,70 30,65 30,60 Z M60,60 C60,55 65,50 70,50 C75,50 80,55 80,60 C80,65 75,70 70,70 C65,70 60,65 60,60 Z" fill="url(#gradient)" />
</svg>